<svg width="30" height="30" viewBox="0 0 30 30" fill="none" xmlns="http://www.w3.org/2000/svg">
<circle cx="15" cy="15" r="15" fill="#7B93FF"/>
<path d="M19.2332 10.1315C18.6472 9.4626 18.3244 8.60358 18.3246 7.71436H15.676V18.3429C15.6556 18.9181 15.4128 19.4629 14.9987 19.8626C14.5846 20.2623 14.0316 20.4857 13.456 20.4858C12.2389 20.4858 11.2275 19.4915 11.2275 18.2572C11.2275 16.7829 12.6503 15.6772 14.116 16.1315V13.4229C11.1589 13.0286 8.57031 15.3258 8.57031 18.2572C8.57031 21.1115 10.936 23.1429 13.4475 23.1429C16.1389 23.1429 18.3246 20.9572 18.3246 18.2572V12.8658C19.3986 13.6371 20.6881 14.0509 22.0103 14.0486V11.4001C22.0103 11.4001 20.3989 11.4772 19.2332 10.1315Z" fill="black"/>
</svg>
