<svg width="50" height="51" viewBox="0 0 50 51" fill="none" xmlns="http://www.w3.org/2000/svg">
<path id="Vector" d="M36.8719 0.925781H19.9723C18.2754 0.925781 16.8996 2.30157 16.8996 3.99844H33.7993V16.2891H46.0899V40.8704H35.3356V43.943H46.0899C47.7868 43.943 49.1626 42.5672 49.1626 40.8704V13.2172L36.8719 0.925781ZM36.8719 13.2164V5.27052L44.8163 13.2164H36.8719ZM3.07266 7.0711C1.37578 7.0711 0 8.44689 0 10.1438V47.0157C0 48.7126 1.37578 50.0884 3.07266 50.0884H29.1903C30.8872 50.0884 32.2629 48.7126 32.2629 47.0157V19.3625L19.9723 7.0711H3.07266ZM29.1903 47.0157H3.07266V10.1438H16.8996V22.4344H29.1903V47.0157ZM19.9723 19.3617V11.4158L27.9167 19.3617H19.9723Z" fill="#7B93FF"/>
</svg>
