<svg width="256" height="113" viewBox="0 0 256 113" fill="none" xmlns="http://www.w3.org/2000/svg">
<g id="main-logo-side 1" clip-path="url(#clip0_801_3036)">
<path id="Vector" d="M0 56.7861L54.8978 0.572152L88.32 34.6152H65.8489L55.04 23.4582L22.4711 56.7861L54.8978 89.9709L65.8489 78.8139H88.32L54.8978 113L0 56.7861ZM107.378 0H84.7644L118.756 34.7582H141.369L107.378 0ZM80.3556 0H58.7378L92.7289 34.7582H114.347L80.3556 0Z" fill="url(#paint0_linear_801_3036)"/>
<path id="Vector_2" d="M57.7422 51.0645C61.5822 51.9228 61.5822 61.3633 57.7422 62.3645V51.0645ZM226.276 86.1089H230.684V72.2342H226.276V86.1089ZM244.622 38.1911H242.062C242.631 43.9127 251.733 44.3418 252.587 38.1911H250.027C249.6 39.3354 248.889 40.0506 247.324 40.0506C245.76 39.9076 245.191 39.1924 244.622 38.1911ZM139.804 68.8013H140.8H143.787H144.64L144.782 67.657V45.6291V44.6278H142.222H139.947V68.8013H139.804ZM207.787 73.5215C212.053 72.8063 212.48 75.381 212.48 79.243C212.48 83.1051 211.911 85.5367 207.644 84.9646L207.787 73.5215ZM211.342 86.1089C213.902 85.6797 215.893 85.1076 217.173 83.2481C217.742 82.3899 218.169 80.9595 218.169 79.6721C218.311 77.5266 217.742 75.9532 216.604 74.3797C214.044 71.3759 206.222 72.0911 202.524 72.2342V86.1089H211.342ZM240.071 86.1089H241.636V76.9544L244.622 86.1089H247.324L250.453 76.8114V86.1089H254.862C254.862 82.962 254.436 74.8088 255.004 72.3772H250.169L247.467 80.3873L244.48 72.3772H240.071V86.1089ZM167.253 63.2228L168.533 65.6544C171.378 70.3747 178.062 70.2316 180.622 66.0835C181.476 64.7962 182.613 62.2215 182.329 60.219C180.622 60.0759 179.627 59.9329 177.92 59.9329C177.493 61.7924 177.493 63.5089 176.071 64.3671C174.364 65.5114 172.658 64.081 172.089 62.5076C171.093 60.6481 171.236 52.924 172.231 50.6354C172.8 49.2051 174.364 47.4886 176.356 48.919C177.493 49.7772 177.778 51.7797 177.92 53.7823L182.187 53.4962C182.329 53.0671 182.044 50.3494 181.476 48.919C179.342 43.1975 173.511 43.4835 170.667 45.343C164.267 49.7772 167.253 62.2215 167.253 63.2228ZM190.293 57.6443C193.422 57.6443 194.844 57.7873 194.844 61.2202C194.844 64.6532 193.28 64.7962 190.151 64.7962L190.293 57.6443ZM199.964 60.6481C199.68 53.7823 195.413 53.6392 190.293 53.4962V44.6278L185.458 44.4848V68.6582C189.013 68.8013 196.124 69.5164 198.258 66.7987C199.68 65.0823 199.964 63.2228 199.964 60.6481ZM207.36 68.8013L207.218 62.3645C207.218 60.7911 207.36 59.6468 208.64 58.3595C209.067 57.7873 208.498 58.2164 209.209 57.7873L212.907 68.6582H217.884C217.6 67.0848 216.036 63.7949 215.467 62.2215C214.613 60.0759 213.902 58.0734 213.049 55.9278L212.053 53.6392L217.458 44.4848H212.48C212.338 45.4861 210.631 48.3468 209.92 49.4911C209.209 50.7785 208.071 53.3532 207.36 54.2114L207.502 44.4848H202.524V68.5152L207.36 68.8013ZM122.453 68.8013H127.289C127.716 63.938 126.293 60.7911 129.138 57.7873L132.978 68.6582H137.956C137.813 67.5139 133.831 58.0734 133.12 56.0709L132.267 53.7823C133.689 51.0645 136.676 46.9164 137.529 44.6278H132.551L127.431 54.4975L127.289 44.7709H122.453V68.8013ZM103.253 68.8013H108.089V58.9316H113.351L113.493 68.6582H118.187V44.4848H113.351V54.3544H108.089V44.6278H103.253V68.8013ZM153.458 58.3595C156.444 58.2164 159.147 58.0734 159.004 61.5063C159.004 64.7962 156.302 64.9392 153.316 64.6532L153.458 58.3595ZM153.458 48.6329C156.018 48.4899 158.578 48.3468 158.436 51.6367C158.293 54.6405 155.876 54.6405 153.316 54.3544L153.458 48.6329ZM163.698 59.5038C162.56 57.7873 162.844 57.5013 160.569 56.2139C161.564 55.2126 164.124 54.4975 163.413 49.4911C162.987 46.4873 161.564 45.343 158.862 44.7709L148.764 44.6278V68.8013C151.04 68.9443 158.293 68.9443 160.284 68.3721C163.556 67.3709 164.409 63.5089 163.698 59.5038ZM231.396 44.6278H230.4C230.542 47.9177 230.116 48.0607 228.124 51.6367C227.556 52.781 227.129 53.6392 226.418 54.7835C225.991 55.4987 225.28 57.3582 224.711 57.9304V44.7709H219.876V68.9443H224.711C224.996 64.7962 224.711 66.9418 227.129 61.9354L230.4 55.7848V68.9443H235.236V44.7709L231.396 44.6278ZM254.578 44.4848C253.298 44.9139 251.307 44.6278 249.884 44.6278C249.884 48.0608 249.6 47.9177 247.467 51.7797C246.756 53.0671 244.907 57.0721 244.196 57.9304V44.6278H239.36V68.8013H244.196C244.622 64.6532 244.053 66.7987 246.613 61.9354L249.031 57.3582C249.316 56.643 249.458 56.357 249.884 55.7848V68.8013L254.72 68.9443L254.578 44.4848ZM92.3022 50.2063C92.5867 50.7785 94.4356 58.9316 94.4356 59.6468H90.3111L92.3022 50.2063ZM83.6267 68.6582H88.0355L89.1733 63.7949H95.2889L96.4267 68.8013H101.262L95.0044 44.6278L90.0267 44.4848L83.6267 68.6582ZM73.3867 48.6329C76.3733 48.4899 77.9378 48.7759 77.9378 52.3519C77.7955 55.7848 76.3733 55.9278 73.2444 55.7848L73.3867 48.6329ZM68.4089 68.8013H73.2444V59.9329C76.5155 59.7899 79.2178 60.0759 81.0667 58.0734C83.9111 55.2126 84.3378 45.9152 77.9378 44.9139C75.8044 44.6278 70.5422 44.4848 68.4089 44.7709V68.8013ZM53.6178 62.3645C49.92 62.0785 49.7778 52.0658 53.6178 51.0645V62.3645ZM46.2222 54.2114C45.5111 58.0734 46.3644 63.3658 50.0622 65.3683C51.3422 66.0835 52.48 66.2266 53.6178 66.6557V69.5164H57.7422V66.6557C60.3022 65.7975 61.7244 65.5114 63.1467 63.6519C65.9911 60.0759 65.8489 53.7823 63.2889 50.0633C61.8667 48.0608 60.4444 47.9177 57.7422 46.9164V44.0557H53.6178C53.6178 47.7747 53.9022 46.6304 51.6267 47.4886C48.4978 48.4899 46.7911 51.0646 46.2222 54.2114Z" fill="black"/>
<path id="Vector_3" d="M101.689 97.6949V95.2633H106.524V94.405H100.551V101.986H104.533C106.382 101.986 107.377 101.128 107.377 99.8405C107.377 99.1253 107.093 98.5531 106.524 98.124C105.955 97.8379 105.386 97.6949 104.533 97.6949H101.689ZM101.689 98.5531H104.391C105.529 98.5531 106.24 98.9822 106.24 99.8405C106.24 100.699 105.529 101.128 104.391 101.128H101.689V98.5531ZM109.511 102.129H110.649C111.36 102.129 111.786 101.843 112.213 101.128L115.769 94.5481H114.346L111.929 99.4114L109.369 94.5481H107.946L111.36 100.556C111.075 101.271 110.791 101.271 110.222 101.271H109.511V102.129ZM123.449 102.129V103.846H124.586V101.271H123.875V94.5481H118.044V98.2671C118.044 99.2683 117.902 99.9835 117.475 100.413C117.049 100.842 116.48 101.128 115.911 101.271V103.846H117.049V102.129H123.449ZM122.737 101.271H117.902C118.897 100.699 119.324 99.6974 119.324 98.2671V95.4063H122.737V101.271ZM127.431 94.5481H126.293V102.129H127.431V94.5481ZM129.564 102.129H133.689C134.542 102.129 135.253 101.986 135.68 101.557C136.106 101.128 136.391 100.556 136.391 99.9835C136.391 99.1253 135.822 98.5531 134.684 98.124C135.537 97.8379 135.964 97.2658 135.964 96.4076C135.964 95.2633 134.969 94.405 133.262 94.405H129.564V102.129ZM130.702 97.8379V95.4063H132.977C134.257 95.4063 134.826 95.8354 134.826 96.5506C134.826 97.4088 134.257 97.6949 132.977 97.6949H130.702V97.8379ZM130.702 101.271V98.6962H133.546C134.542 98.6962 135.253 99.1253 135.253 99.9835C135.253 100.842 134.684 101.271 133.546 101.271H130.702ZM139.093 98.6962H144.071V97.8379H139.093V95.4063H144.213V94.5481H137.955V102.129H144.497V101.271H139.093V98.6962ZM152.177 102.129H153.315V94.5481H147.2V99.2683C147.2 100.556 146.631 101.271 145.635 101.271V102.129H145.777C146.631 102.129 147.057 101.843 147.626 101.271C148.053 100.699 148.337 99.9835 148.337 99.1253V95.2633H152.035V102.129H152.177ZM156.444 97.6949V94.405H155.306V101.986H159.289C161.137 101.986 162.133 101.128 162.133 99.8405C162.133 99.1253 161.849 98.5531 161.28 98.124C160.711 97.8379 160.142 97.6949 159.289 97.6949H156.444ZM156.444 98.5531H159.146C160.284 98.5531 160.995 98.9822 160.995 99.8405C160.995 100.699 160.284 101.128 159.146 101.128H156.444V98.5531ZM169.529 98.6962V102.129H170.666V94.5481H169.529V97.8379H164.835V94.5481H163.697V102.129H164.835V98.6962H169.529ZM177.635 99.8405L178.631 102.129H179.911L176.64 94.5481H175.075L171.804 102.129H173.084L174.08 99.8405H177.635ZM177.351 98.9822H174.506L176.071 95.5493L177.351 98.9822ZM188.16 102.129H189.297V98.5531H190.151L192.995 102.129H194.275L191.146 98.124L193.706 94.5481H192.426L190.151 97.6949H189.297V94.5481H188.16V102.129ZM199.822 94.405C197.262 94.405 195.413 95.9785 195.413 98.4101C195.413 100.842 197.262 102.415 199.822 102.415C200.96 102.415 201.955 102.129 202.666 101.557C203.662 100.842 204.231 99.6974 204.231 98.4101C204.231 95.9785 202.524 94.405 199.822 94.405ZM199.822 95.2633C201.813 95.2633 203.093 96.5506 203.093 98.4101C203.093 100.27 201.813 101.557 199.822 101.557C197.831 101.557 196.551 100.27 196.551 98.4101C196.551 96.5506 197.831 95.2633 199.822 95.2633ZM210.631 102.129L213.191 95.6924V102.129H214.329V94.5481H212.764L210.062 101.128L207.36 94.5481H205.795V102.129H206.933V95.6924L209.493 102.129H210.631ZM217.6 95.4063H222.293V102.129H223.431V94.5481H216.32V102.129H217.457V95.4063H217.6ZM230.4 99.8405L231.395 102.129H232.675L229.404 94.5481H227.84L224.569 102.129H225.849L226.844 99.8405H230.4ZM230.115 98.9822H227.129L228.693 95.5493L230.115 98.9822ZM239.786 98.6962V102.129H240.924V94.5481H239.786V97.8379H235.093V94.5481H233.955V102.129H235.093V98.6962H239.786ZM244.337 94.5481H243.2V102.129H244.337V94.5481ZM252.16 98.8392V102.129H253.297V94.5481H249.173C247.324 94.5481 246.329 95.2633 246.329 96.5506C246.329 97.4088 246.755 97.981 247.751 98.4101C246.755 98.8392 246.471 99.1253 246.471 100.413C246.471 101.7 246.329 101.843 245.902 102.129H247.324C247.466 101.7 247.609 101.414 247.609 100.842V100.556C247.609 100.413 247.609 100.27 247.609 100.27C247.609 99.4114 248.035 98.9822 249.173 98.9822H252.16V98.8392ZM252.16 97.981H249.315C248.035 97.981 247.466 97.5519 247.466 96.6936C247.466 95.8354 248.035 95.4063 249.315 95.4063H252.16V97.981Z" fill="black"/>
</g>
<defs>
<linearGradient id="paint0_linear_801_3036" x1="70.6423" y1="111.863" x2="70.6423" y2="1.13" gradientUnits="userSpaceOnUse">
<stop stop-color="#AE7C1D"/>
<stop offset="0.1294" stop-color="#C18C28"/>
<stop offset="0.2902" stop-color="#BF8B26"/>
<stop offset="0.3882" stop-color="#BB8723"/>
<stop offset="0.4392" stop-color="#CF9D2E"/>
<stop offset="0.502" stop-color="#DEB141"/>
<stop offset="0.6392" stop-color="#EEC35C"/>
<stop offset="1" stop-color="#F3D16F"/>
</linearGradient>
<clipPath id="clip0_801_3036">
<rect width="256" height="113" fill="white"/>
</clipPath>
</defs>
</svg>
