<svg width="47" height="48" viewBox="0 0 47 48" fill="none" xmlns="http://www.w3.org/2000/svg">
<path id="Vector" fill-rule="evenodd" clip-rule="evenodd" d="M23.2975 0.544922H23.524C25.4818 0.544922 27.1129 0.544922 28.4065 0.719141C29.7741 0.902072 31.0089 1.30713 31.9998 2.29801C32.9928 3.29106 33.3979 4.52584 33.5808 5.89128C33.7115 6.84949 33.7441 7.99063 33.7529 9.31034C35.164 9.35608 36.4228 9.44101 37.5421 9.58909C40.0944 9.93318 42.1611 10.6562 43.7923 12.2851C45.4212 13.9163 46.1442 15.9829 46.4883 18.5353C46.8215 21.0179 46.8215 24.1865 46.8215 28.1892V28.4331C46.8215 32.4358 46.8215 35.6066 46.4883 38.0871C46.1442 40.6394 45.4212 42.706 43.7923 44.3372C42.1611 45.9661 40.0944 46.6891 37.5421 47.0332C35.0595 47.3664 31.8909 47.3664 27.8882 47.3664H18.9333C14.9306 47.3664 11.7598 47.3664 9.27937 47.0332C6.72705 46.6891 4.66037 45.9661 3.02924 44.3372C1.40029 42.706 0.677278 40.6394 0.333195 38.0871C0 35.6044 0 32.4358 0 28.4331V28.1892C0 24.1865 0 21.0157 0.333195 18.5353C0.677278 15.9829 1.40029 13.9163 3.02924 12.2851C4.66037 10.6562 6.72705 9.93318 9.27937 9.58909C10.5371 9.43337 11.8017 9.34034 13.0686 9.31034C13.0774 7.99063 13.1122 6.84949 13.2407 5.89128C13.4236 4.52584 13.8287 3.29106 14.8195 2.29801C15.8126 1.30713 17.0474 0.90425 18.4128 0.719141C19.7086 0.544922 21.3419 0.544922 23.2975 0.544922ZM16.3374 9.26025C17.1606 9.2559 18.0252 9.2559 18.9333 9.2559H27.8882C28.7963 9.2559 29.6609 9.2559 30.4841 9.26025C30.4754 8.01894 30.4449 7.08251 30.3447 6.32683C30.2075 5.32289 29.9745 4.8917 29.6914 4.60859C29.4083 4.32549 28.9771 4.09247 27.9709 3.95527C26.9213 3.81589 25.5101 3.81154 23.4107 3.81154C21.3114 3.81154 19.9002 3.81589 18.8484 3.95745C17.8444 4.09247 17.4132 4.32549 17.1301 4.61077C16.847 4.89388 16.614 5.32289 16.4768 6.32683C16.3766 7.08033 16.3461 8.01676 16.3374 9.26025ZM9.71274 12.8274C7.52193 13.1214 6.25884 13.6745 5.33547 14.5957C4.41647 15.5169 3.86332 16.78 3.56932 18.9708C3.26879 21.2074 3.26444 24.1582 3.26444 28.3112C3.26444 32.4641 3.26879 35.415 3.56932 37.6537C3.86332 39.8423 4.41647 41.1054 5.33765 42.0266C6.25884 42.9478 7.52193 43.5009 9.71274 43.7949C11.9515 44.0955 14.9001 44.0998 19.0531 44.0998H27.7641C31.917 44.0998 34.8679 44.0955 37.1066 43.7949C39.2952 43.5009 40.5583 42.9478 41.4795 42.0266C42.4007 41.1054 42.9538 39.8423 43.2478 37.6515C43.5483 35.415 43.5527 32.4641 43.5527 28.3112C43.5527 24.1582 43.5483 21.2095 43.2478 18.9686C42.9538 16.78 42.4007 15.5169 41.4795 14.5957C40.5583 13.6745 39.2952 13.1214 37.1044 12.8274C34.8679 12.5269 31.917 12.5225 27.7641 12.5225H19.0531C14.9001 12.5225 11.9536 12.5269 9.71274 12.8274ZM23.4107 17.9669C23.8439 17.9669 24.2594 18.139 24.5657 18.4453C24.872 18.7516 25.0441 19.167 25.0441 19.6002V19.622C27.4156 20.2187 29.3995 22.0893 29.3995 24.6809C29.3995 25.114 29.2275 25.5295 28.9212 25.8358C28.6149 26.1421 28.1994 26.3142 27.7662 26.3142C27.3331 26.3142 26.9176 26.1421 26.6113 25.8358C26.305 25.5295 26.1329 25.114 26.1329 24.6809C26.1329 23.8446 25.2052 22.686 23.4107 22.686C21.6163 22.686 20.6886 23.8446 20.6886 24.6809C20.6886 25.5171 21.6163 26.6779 23.4107 26.6779C26.4269 26.6779 29.3995 28.7685 29.3995 31.9415C29.3995 34.533 27.4156 36.4015 25.0441 37.0004V37.0221C25.0441 37.4553 24.872 37.8708 24.5657 38.1771C24.2594 38.4834 23.8439 38.6554 23.4107 38.6554C22.9776 38.6554 22.5621 38.4834 22.2558 38.1771C21.9495 37.8708 21.7774 37.4553 21.7774 37.0221V37.0004C19.4059 36.4037 17.422 34.533 17.422 31.9415C17.422 31.5083 17.594 31.0928 17.9003 30.7865C18.2066 30.4802 18.6221 30.3082 19.0553 30.3082C19.4884 30.3082 19.9039 30.4802 20.2102 30.7865C20.5165 31.0928 20.6886 31.5083 20.6886 31.9415C20.6886 32.7777 21.6163 33.9363 23.4107 33.9363C25.2052 33.9363 26.1329 32.7777 26.1329 31.9415C26.1329 31.1052 25.2052 29.9445 23.4107 29.9445C20.3946 29.9445 17.422 27.8538 17.422 24.6809C17.422 22.0893 19.4059 20.2187 21.7774 19.622V19.6002C21.7774 19.167 21.9495 18.7516 22.2558 18.4453C22.5621 18.139 22.9776 17.9669 23.4107 17.9669Z" fill="#7B93FF"/>
</svg>
