<svg width="336" height="55" viewBox="0 0 336 55" fill="none" xmlns="http://www.w3.org/2000/svg">
<g clip-path="url(#clip0_801_2622)">
<path d="M99.6779 55C75.7387 55 74.9768 38.9429 74.9768 34.4C74.9768 29.8286 75.5042 13.8857 99.6779 13.8857C123.764 13.8857 124.379 29.8286 124.379 34.4C124.379 38.9429 123.676 55 99.6779 55ZM99.6779 47C115.354 47 113.45 33.6572 113.45 33.6572C113.45 30.9715 112.981 21.8857 99.6779 21.8857C86.3458 21.8857 85.9063 31.0857 85.9063 33.6572C85.9063 33.6572 83.9431 47 99.6779 47Z" fill="#7B93FF"/>
<path d="M133.646 54.086V14.8003H142.144L142.906 21.5146H143.609C145.045 19.5717 149.586 13.9146 160.369 13.9146C171.416 13.9146 173.995 18.9431 175.196 21.5146H175.87C177.394 19.4288 182.287 13.9146 192.865 13.9146C209.156 13.9146 209.156 26.1717 209.156 29.8003V54.1146H198.608V31.6003C198.344 29.9717 199.106 22.1431 188.323 22.5717C184.924 22.7146 176.661 25.3146 176.661 33.2288V54.1146H166.142V31.6003C166.288 22.086 157.967 22.5717 156.502 22.5717C148.092 22.6574 143.902 28.886 144.195 33.2288V54.1146H133.646V54.086Z" fill="#7B93FF"/>
<path d="M243.258 55C218.821 55.2 218.088 39.1715 218.088 34.4857C218.088 30.1715 218.44 13.9143 242.877 13.8857C271.094 13.8857 267.051 34.6286 267.344 37H229.164C229.311 39.4286 229.809 46.9715 243.551 47C249.382 47.0286 255.975 44.5715 256.327 40.5143H267.022C267.344 44.6286 263.564 54.8286 243.258 55ZM229.164 30.1429H256.18C256.18 28.4857 255.594 21.8572 243.024 21.8572C230.893 21.8857 229.428 28.3715 229.164 30.1429Z" fill="#7B93FF"/>
<path d="M13.8596 54.0857L36.8319 24.2286C37.2715 23.6571 37.6524 23.5143 37.7696 23.5143C37.9161 23.5143 38.2677 23.6571 38.7072 24.2286L61.6796 54.0857H74.9532L47.234 18.0286C44.8605 14.9429 41.403 13.1714 37.7989 13.1714C34.1948 13.1714 30.7372 14.9429 28.3638 18.0286L15.2368 35.0857L23.2361 0H12.3359L0 54.0857H13.8596Z" fill="#7B93FF"/>
<path d="M286.95 30.0002C286.042 29.6288 285.251 29.1145 284.577 28.4288C283.903 27.7431 283.405 26.9431 283.024 25.9716C282.643 25.0288 282.438 23.9716 282.438 22.8573V22.5716C282.438 21.4288 282.643 20.3716 283.024 19.4288C283.405 18.4859 283.932 17.6859 284.577 17.0002C285.251 16.3145 286.042 15.8002 286.95 15.4288C287.859 15.0573 288.884 14.8859 289.998 14.8859H290.086C291.199 14.8859 292.225 15.0859 293.162 15.4859C294.1 15.8859 294.891 16.4288 295.594 17.1145V9.2002H298.554V30.3145H296.239C296.122 30.0573 296.005 29.7145 295.946 29.3145C295.858 28.8859 295.8 28.5145 295.77 28.2288V28.1716C295.067 28.9431 294.247 29.5145 293.28 29.9431C292.313 30.3716 291.258 30.5716 290.115 30.5716H290.027C288.884 30.5431 287.859 30.3716 286.95 30.0002ZM290.613 28.0002C291.346 28.0002 292.02 27.8859 292.635 27.6288C293.25 27.3716 293.748 27.0288 294.188 26.5716C294.627 26.1145 294.979 25.5716 295.214 24.9431C295.448 24.3145 295.565 23.6002 295.565 22.8288V22.5716C295.565 21.7716 295.448 21.0573 295.214 20.4288C294.979 19.8002 294.627 19.2573 294.188 18.8002C293.748 18.3431 293.221 18.0002 292.606 17.7431C291.99 17.4859 291.316 17.3716 290.613 17.3716H290.437C289.705 17.3716 289.06 17.4859 288.445 17.7431C287.83 18.0002 287.331 18.3431 286.892 18.8002C286.482 19.2573 286.159 19.8002 285.925 20.4288C285.691 21.0573 285.573 21.7716 285.573 22.5716V22.8002C285.573 23.5716 285.691 24.2859 285.925 24.9145C286.159 25.5431 286.482 26.0859 286.892 26.5431C287.302 27.0002 287.83 27.3431 288.445 27.6002C289.06 27.8573 289.734 27.9716 290.437 27.9716H290.613V28.0002Z" fill="#7B93FF"/>
<path d="M307.343 30.0005C306.346 29.6291 305.526 29.1148 304.852 28.4577C304.178 27.8005 303.651 27.0005 303.27 26.0862C302.889 25.1719 302.684 24.1719 302.684 23.0577V22.6862C302.684 21.5434 302.889 20.5148 303.27 19.5719C303.651 18.6291 304.207 17.8005 304.91 17.1148C305.614 16.4291 306.434 15.8862 307.401 15.4862C308.368 15.0862 309.394 14.8862 310.536 14.8862H310.595C311.679 14.8862 312.675 15.0577 313.584 15.4005C314.492 15.7434 315.254 16.2291 315.899 16.8577C316.543 17.4862 317.041 18.2577 317.393 19.1148C317.745 19.9719 317.92 20.9434 317.92 21.9719V23.8005H305.672C305.76 24.4005 305.936 24.9719 306.2 25.4862C306.463 26.0005 306.815 26.4577 307.255 26.8291C307.694 27.2005 308.192 27.4862 308.778 27.6862C309.364 27.8862 309.98 28.0005 310.683 28.0005H310.771C311.826 28.0005 312.763 27.8005 313.584 27.3719C314.404 26.9719 315.049 26.4577 315.488 25.8577L317.422 27.5434C317.071 28.0005 316.631 28.4291 316.133 28.8291C315.635 29.2291 315.078 29.5434 314.492 29.8005C313.877 30.0577 313.261 30.2577 312.617 30.4005C311.972 30.5434 311.328 30.6291 310.654 30.6291H310.507C309.364 30.5434 308.309 30.3719 307.343 30.0005ZM315.049 21.4862C315.019 20.8577 314.873 20.2862 314.639 19.8005C314.404 19.3148 314.082 18.8862 313.672 18.5148C313.261 18.1434 312.793 17.8577 312.236 17.6577C311.679 17.4577 311.093 17.3434 310.478 17.3434H310.448C309.833 17.3434 309.276 17.4291 308.749 17.6291C308.222 17.8291 307.723 18.1148 307.343 18.4862C306.932 18.8577 306.61 19.2862 306.346 19.8005C306.083 20.2862 305.877 20.8577 305.76 21.4862H315.049Z" fill="#7B93FF"/>
<path d="M319.645 15.0581H322.809L327.293 27.401H327.586L332.069 15.0581H335.233L329.344 30.3152H325.564L319.645 15.0581Z" fill="#7B93FF"/>
</g>
<defs>
<clipPath id="clip0_801_2622">
<rect width="335.238" height="55" fill="white"/>
</clipPath>
</defs>
</svg>
