<svg width="30" height="30" viewBox="0 0 30 30" fill="none" xmlns="http://www.w3.org/2000/svg">
<path fill-rule="evenodd" clip-rule="evenodd" d="M15 0C6.71575 0 0 6.71575 0 15C0 23.2843 6.71575 30 15 30C23.2843 30 30 23.2843 30 15C30 6.71575 23.2843 0 15 0ZM11.7021 7.04831C12.5554 7.0095 12.8281 7 15.0007 7H14.9983C17.1716 7 17.4432 7.0095 18.2966 7.04831C19.1483 7.08731 19.7299 7.22219 20.24 7.42C20.7666 7.62419 21.2116 7.8975 21.6566 8.3425C22.1017 8.78719 22.375 9.2335 22.58 9.75969C22.7767 10.2684 22.9117 10.8497 22.9517 11.7014C22.99 12.5548 23 12.8274 23 15.0001C23 17.1727 22.99 17.4447 22.9517 18.2981C22.9117 19.1494 22.7767 19.7309 22.58 20.2398C22.375 20.7658 22.1017 21.2121 21.6566 21.6568C21.2121 22.1018 20.7665 22.3758 20.2405 22.5802C19.7314 22.778 19.1494 22.9128 18.2978 22.9518C17.4444 22.9907 17.1726 23.0002 14.9998 23.0002C12.8272 23.0002 12.5548 22.9907 11.7014 22.9518C10.8499 22.9128 10.2684 22.778 9.75937 22.5802C9.2335 22.3758 8.78719 22.1018 8.34269 21.6568C7.89781 21.2121 7.6245 20.7658 7.42 20.2396C7.22231 19.7309 7.0875 19.1496 7.04831 18.2979C7.00969 17.4446 7 17.1727 7 15.0001C7 12.8274 7.01 12.5546 7.04819 11.7012C7.0865 10.8499 7.2215 10.2684 7.41981 9.7595C7.62481 9.2335 7.89819 8.78719 8.34319 8.3425C8.78788 7.89769 9.23419 7.62431 9.76038 7.42C10.2691 7.22219 10.8504 7.08731 11.7021 7.04831Z" fill="#7B93FF"/>
<path fill-rule="evenodd" clip-rule="evenodd" d="M14.2861 8.44194C14.4254 8.44175 14.5753 8.44182 14.7371 8.44188L15.0037 8.44194C17.1397 8.44194 17.3929 8.44963 18.2364 8.48794C19.0164 8.52363 19.4397 8.65394 19.7217 8.76344C20.0951 8.90844 20.3612 9.08182 20.6411 9.36182C20.9211 9.64182 21.0944 9.9085 21.2398 10.2818C21.3493 10.5635 21.4798 10.9868 21.5153 11.7668C21.5536 12.6102 21.5619 12.8635 21.5619 14.9985C21.5619 17.1336 21.5536 17.3869 21.5153 18.2303C21.4796 19.0103 21.3493 19.4336 21.2398 19.7153C21.0948 20.0886 20.9211 20.3544 20.6411 20.6343C20.3611 20.9143 20.0952 21.0876 19.7217 21.2326C19.4401 21.3426 19.0164 21.4726 18.2364 21.5083C17.3931 21.5466 17.1397 21.5549 15.0037 21.5549C12.8676 21.5549 12.6144 21.5466 11.771 21.5083C10.991 21.4723 10.5677 21.3419 10.2855 21.2324C9.91219 21.0874 9.6455 20.9141 9.3655 20.6341C9.0855 20.3541 8.91219 20.0881 8.76681 19.7146C8.65731 19.4329 8.52681 19.0096 8.49131 18.2296C8.453 17.3863 8.44531 17.1329 8.44531 14.9965C8.44531 12.8602 8.453 12.6082 8.49131 11.7648C8.527 10.9848 8.65731 10.5615 8.76681 10.2795C8.91181 9.90613 9.0855 9.6395 9.3655 9.3595C9.6455 9.0795 9.91219 8.90613 10.2855 8.76082C10.5675 8.65082 10.991 8.52082 11.771 8.48494C12.509 8.45163 12.7951 8.44163 14.2861 8.43994V8.44194ZM19.2741 9.77032C18.7441 9.77032 18.3141 10.1998 18.3141 10.73C18.3141 11.26 18.7441 11.69 19.2741 11.69C19.8041 11.69 20.2341 11.26 20.2341 10.73C20.2341 10.2 19.8041 9.77032 19.2741 9.77032ZM10.8954 15.0004C10.8954 12.7316 12.7347 10.8921 15.0036 10.892C17.2724 10.892 19.1114 12.7315 19.1114 15.0004C19.1114 17.2693 17.2726 19.1079 15.0037 19.1079C12.7349 19.1079 10.8954 17.2693 10.8954 15.0004Z" fill="#7B93FF"/>
<path d="M14.9987 12.333C16.4714 12.333 17.6654 13.5269 17.6654 14.9997C17.6654 16.4724 16.4714 17.6664 14.9987 17.6664C13.5259 17.6664 12.332 16.4724 12.332 14.9997C12.332 13.5269 13.5259 12.333 14.9987 12.333Z" fill="#7B93FF"/>
</svg>
