<svg width="47" height="48" viewBox="0 0 47 48" fill="none" xmlns="http://www.w3.org/2000/svg">
<path id="Vector" d="M46.8215 29.9785V47.5363H23.4107V29.9785H29.2634V24.126H40.9688V29.9785H46.8215ZM32.1898 29.9785H38.0425V27.0522H32.1898V29.9785ZM43.8952 38.7574H40.9688V41.6837H38.0425V38.7574H32.1898V41.6837H29.2634V38.7574H26.3371V44.61H43.8952V38.7574ZM43.8952 32.9049H26.3371V35.8311H43.8952V32.9049ZM35.7791 21.1997C34.9561 20.2699 33.9806 19.5536 32.8528 19.0507C31.7249 18.5477 30.5285 18.2886 29.2634 18.2734C28.0441 18.2734 26.9086 18.502 25.857 18.9592C24.8053 19.4164 23.8756 20.0413 23.0678 20.8339C22.26 21.6264 21.6275 22.5637 21.1703 23.6459C20.713 24.728 20.4844 25.8634 20.4844 27.0522C20.4844 28.4544 20.172 29.7728 19.5471 31.0073C18.9222 32.2419 18.0382 33.2783 16.8951 34.1165C17.5809 34.4671 18.2211 34.871 18.8155 35.3282C19.4099 35.7854 19.9662 36.3036 20.4844 36.8828V44.61C20.4844 43.406 20.2558 42.2705 19.7985 41.2037C19.3413 40.1368 18.7164 39.2071 17.9239 38.4145C17.1313 37.622 16.194 36.9895 15.1118 36.517C14.0297 36.0445 12.8942 35.8159 11.7054 35.8311C10.4861 35.8311 9.35058 36.0598 8.29893 36.517C7.24727 36.9742 6.31755 37.5991 5.50976 38.3917C4.70196 39.1842 4.06945 40.1215 3.61221 41.2037C3.15496 42.2858 2.92634 43.4212 2.92634 44.61H0C0 43.4974 0.152414 42.4229 0.457241 41.3865C0.762069 40.3501 1.19645 39.3671 1.76038 38.4374C2.32431 37.5077 3.01017 36.6847 3.81796 35.9683C4.62576 35.252 5.525 34.6347 6.51569 34.1165C5.38783 33.2935 4.51145 32.2647 3.88655 31.0302C3.26165 29.7957 2.94159 28.4697 2.92634 27.0522C2.92634 25.8482 3.15496 24.7127 3.61221 23.6459C4.06945 22.579 4.69434 21.6493 5.48689 20.8567C6.27945 20.0642 7.20917 19.4317 8.27607 18.9592C9.34296 18.4867 10.4861 18.2581 11.7054 18.2734C13.1076 18.2734 14.426 18.5858 15.6605 19.2107C16.8951 19.8356 17.9315 20.7196 18.7698 21.8626C19.3489 20.7196 20.0881 19.6984 20.9874 18.7992C21.8866 17.8999 22.9154 17.1531 24.0737 16.5587C22.9459 15.7357 22.0695 14.7069 21.4446 13.4724C20.8197 12.2379 20.4996 10.9119 20.4844 9.49446C20.4844 8.29041 20.713 7.15494 21.1703 6.08806C21.6275 5.02118 22.2524 4.09147 23.045 3.29893C23.8375 2.50639 24.7672 1.87388 25.8341 1.40141C26.901 0.928934 28.0441 0.700317 29.2634 0.715558C30.4675 0.715558 31.603 0.944175 32.6699 1.40141C33.7368 1.85864 34.6665 2.48353 35.4591 3.27607C36.2516 4.06861 36.8841 5.00594 37.3566 6.08806C37.8291 7.17018 38.0577 8.30565 38.0425 9.49446C38.0425 10.8966 37.73 12.215 37.1051 13.4495C36.4802 14.6841 35.5962 15.7205 34.4531 16.5587C35.4895 17.0769 36.4269 17.7247 37.2652 18.502C38.1034 19.2793 38.8122 20.1785 39.3913 21.1997H35.7791ZM11.7054 32.9049C12.5132 32.9049 13.2676 32.7524 13.9687 32.4476C14.6698 32.1428 15.2947 31.7237 15.8434 31.1902C16.3921 30.6568 16.8112 30.0395 17.1008 29.3384C17.3904 28.6373 17.5428 27.8753 17.5581 27.0522C17.5581 26.2445 17.4056 25.49 17.1008 24.7889C16.796 24.0878 16.3769 23.463 15.8434 22.9143C15.31 22.3656 14.6927 21.9465 13.9916 21.6569C13.2905 21.3673 12.5284 21.2149 11.7054 21.1997C10.8976 21.1997 10.1431 21.3521 9.44203 21.6569C8.74093 21.9617 8.11603 22.3808 7.56734 22.9143C7.01865 23.4477 6.59951 24.065 6.30993 24.7661C6.02034 25.4672 5.86793 26.2292 5.85269 27.0522C5.85269 27.86 6.0051 28.6145 6.30993 29.3156C6.61476 30.0167 7.03389 30.6415 7.56734 31.1902C8.10079 31.7389 8.71807 32.158 9.41917 32.4476C10.1203 32.7372 10.8823 32.8896 11.7054 32.9049ZM23.4107 9.49446C23.4107 10.3022 23.5632 11.0567 23.868 11.7578C24.1728 12.4589 24.592 13.0837 25.1254 13.6324C25.6589 14.1811 26.2761 14.6002 26.9772 14.8898C27.6783 15.1794 28.4404 15.3318 29.2634 15.3471C30.0712 15.3471 30.8257 15.1946 31.5268 14.8898C32.2279 14.585 32.8528 14.1659 33.4015 13.6324C33.9502 13.099 34.3693 12.4817 34.6589 11.7806C34.9485 11.0795 35.1009 10.3175 35.1161 9.49446C35.1161 8.68668 34.9637 7.93224 34.6589 7.23115C34.3541 6.53005 33.9349 5.90517 33.4015 5.35649C32.868 4.8078 32.2507 4.38867 31.5496 4.09909C30.8485 3.80951 30.0865 3.6571 29.2634 3.64186C28.4556 3.64186 27.7012 3.79427 27.0001 4.09909C26.299 4.40391 25.6741 4.82305 25.1254 5.35649C24.5767 5.88993 24.1576 6.50719 23.868 7.20828C23.5784 7.90938 23.426 8.67143 23.4107 9.49446Z" fill="#7B93FF"/>
</svg>
