<svg width="15" height="20" viewBox="0 0 15 20" fill="none" xmlns="http://www.w3.org/2000/svg">
<path d="M7.25 9.5C6.58696 9.5 5.95107 9.23661 5.48223 8.76777C5.01339 8.29893 4.75 7.66304 4.75 7C4.75 6.33696 5.01339 5.70107 5.48223 5.23223C5.95107 4.76339 6.58696 4.5 7.25 4.5C7.91304 4.5 8.54893 4.76339 9.01777 5.23223C9.48661 5.70107 9.75 6.33696 9.75 7C9.75 7.3283 9.68534 7.65339 9.5597 7.95671C9.43406 8.26002 9.24991 8.53562 9.01777 8.76777C8.78562 8.99991 8.51002 9.18406 8.20671 9.3097C7.90339 9.43534 7.5783 9.5 7.25 9.5ZM7.25 0C5.39348 0 3.61301 0.737498 2.30025 2.05025C0.987498 3.36301 0.25 5.14348 0.25 7C0.25 12.25 7.25 20 7.25 20C7.25 20 14.25 12.25 14.25 7C14.25 5.14348 13.5125 3.36301 12.1997 2.05025C10.887 0.737498 9.10652 0 7.25 0Z" fill="white"/>
</svg>
