<svg width="208" height="34" viewBox="0 0 208 34" fill="none" xmlns="http://www.w3.org/2000/svg">
<g clip-path="url(#clip0_801_3509)">
<path d="M61.6214 34.0001C46.8225 34.0001 46.3516 24.0739 46.3516 21.2655C46.3516 18.4396 46.6776 8.58398 61.6214 8.58398C76.5108 8.58398 76.8912 18.4396 76.8912 21.2655C76.8912 24.0739 76.4564 34.0001 61.6214 34.0001ZM61.6214 29.0546C71.3122 29.0546 70.1348 20.8063 70.1348 20.8063C70.1348 19.1461 69.845 13.5294 61.6214 13.5294C53.3797 13.5294 53.108 19.2167 53.108 20.8063C53.108 20.8063 51.8943 29.0546 61.6214 29.0546Z" fill="#7B93FF"/>
<path d="M82.6133 33.4348V9.14909H87.8662L88.3372 13.2997H88.7719C89.6595 12.0987 92.4671 8.60156 99.1329 8.60156C105.962 8.60156 107.556 11.7101 108.298 13.2997H108.715C109.657 12.0104 112.682 8.60156 119.221 8.60156C129.292 8.60156 129.292 16.1787 129.292 18.4218V33.4525H122.771V19.5345C122.608 18.5278 123.079 13.6883 116.413 13.9533C114.312 14.0416 109.204 15.6488 109.204 20.5413V33.4525H102.701V19.5345C102.792 13.653 97.6476 13.9533 96.7419 13.9533C91.5433 14.0062 88.9531 17.8566 89.1342 20.5413V33.4525H82.6133V33.4348Z" fill="#7B93FF"/>
<path d="M150.376 34.0001C135.269 34.1237 134.816 24.2152 134.816 21.3185C134.816 18.6515 135.034 8.60165 150.141 8.58398C167.584 8.58398 165.084 21.4068 165.265 22.8728H141.663C141.754 24.3741 142.062 29.037 150.557 29.0546C154.162 29.0723 158.237 27.5533 158.455 25.0453H165.066C165.265 27.5887 162.929 33.8941 150.376 34.0001ZM141.663 18.6339H158.364C158.364 17.6094 158.002 13.5118 150.231 13.5118C142.732 13.5294 141.826 17.5388 141.663 18.6339Z" fill="#7B93FF"/>
<path d="M8.56775 33.4348L22.7688 14.9777C23.0405 14.6244 23.276 14.5361 23.3485 14.5361C23.439 14.5361 23.6564 14.6244 23.9281 14.9777L38.1292 33.4348H46.3347L29.1992 11.1449C27.732 9.2374 25.5946 8.14234 23.3666 8.14234C21.1386 8.14234 19.0012 9.2374 17.534 11.1449L9.41909 21.6894L14.3641 0H7.62584L0 33.4348H8.56775Z" fill="#7B93FF"/>
<path d="M177.387 18.5457C176.826 18.3161 176.337 17.9982 175.92 17.5743C175.503 17.1504 175.195 16.6558 174.96 16.0553C174.724 15.4724 174.598 14.8189 174.598 14.1301V13.9535C174.598 13.247 174.724 12.5935 174.96 12.0106C175.195 11.4278 175.521 10.9332 175.92 10.5093C176.337 10.0854 176.826 9.7675 177.387 9.53789C177.949 9.30828 178.583 9.20231 179.271 9.20231H179.325C180.014 9.20231 180.648 9.32594 181.227 9.57321C181.807 9.82049 182.296 10.1561 182.731 10.58V5.6875H184.56V18.74H183.129C183.057 18.581 182.984 18.3691 182.948 18.1218C182.894 17.8569 182.857 17.6272 182.839 17.4506V17.4153C182.405 17.8922 181.897 18.2454 181.3 18.5104C180.702 18.7753 180.05 18.8989 179.343 18.8989H179.289C178.583 18.8813 177.949 18.7753 177.387 18.5457ZM179.651 17.3093C180.104 17.3093 180.521 17.2387 180.901 17.0797C181.282 16.9207 181.59 16.7088 181.861 16.4262C182.133 16.1436 182.35 15.808 182.495 15.4194C182.64 15.0309 182.713 14.5893 182.713 14.1124V13.9535C182.713 13.4589 182.64 13.0174 182.495 12.6288C182.35 12.2402 182.133 11.9046 181.861 11.622C181.59 11.3394 181.263 11.1275 180.883 10.9685C180.503 10.8096 180.086 10.7389 179.651 10.7389H179.543C179.09 10.7389 178.691 10.8096 178.311 10.9685C177.931 11.1275 177.623 11.3394 177.351 11.622C177.097 11.9046 176.898 12.2402 176.753 12.6288C176.608 13.0174 176.536 13.4589 176.536 13.9535V14.0948C176.536 14.5717 176.608 15.0132 176.753 15.4018C176.898 15.7904 177.097 16.1259 177.351 16.4085C177.605 16.6911 177.931 16.9031 178.311 17.062C178.691 17.221 179.108 17.2917 179.543 17.2917H179.651V17.3093Z" fill="#7B93FF"/>
<path d="M189.993 18.5455C189.378 18.3159 188.87 17.998 188.454 17.5918C188.037 17.1855 187.711 16.691 187.476 16.1258C187.24 15.5606 187.113 14.9424 187.113 14.2536V14.024C187.113 13.3175 187.24 12.6816 187.476 12.0988C187.711 11.5159 188.055 11.0037 188.49 10.5798C188.925 10.1559 189.432 9.82033 190.03 9.57306C190.627 9.32579 191.261 9.20215 191.968 9.20215H192.004C192.674 9.20215 193.29 9.30812 193.852 9.52007C194.413 9.73202 194.884 10.0323 195.283 10.4208C195.681 10.8094 195.989 11.2863 196.206 11.8162C196.424 12.346 196.532 12.9466 196.532 13.5824V14.7128H188.961C189.015 15.0837 189.124 15.437 189.287 15.7549C189.45 16.0728 189.667 16.3554 189.939 16.585C190.211 16.8146 190.519 16.9912 190.881 17.1149C191.243 17.2385 191.624 17.3092 192.058 17.3092H192.113C192.765 17.3092 193.344 17.1855 193.852 16.9206C194.359 16.6733 194.757 16.3554 195.029 15.9845L196.225 17.0266C196.007 17.3092 195.735 17.5741 195.428 17.8214C195.12 18.0686 194.775 18.2629 194.413 18.4219C194.033 18.5808 193.652 18.7045 193.254 18.7928C192.855 18.8811 192.457 18.9341 192.04 18.9341H191.95C191.243 18.8811 190.591 18.7751 189.993 18.5455ZM194.757 13.2821C194.739 12.8936 194.649 12.5403 194.504 12.2401C194.359 11.9398 194.16 11.6749 193.906 11.4453C193.652 11.2157 193.363 11.039 193.018 10.9154C192.674 10.7918 192.312 10.7211 191.932 10.7211H191.913C191.533 10.7211 191.189 10.7741 190.863 10.8977C190.537 11.0214 190.229 11.198 189.993 11.4276C189.74 11.6572 189.541 11.9221 189.378 12.2401C189.215 12.5403 189.088 12.8936 189.015 13.2821H194.757Z" fill="#7B93FF"/>
<path d="M197.598 9.30811H199.554L202.325 16.9382H202.506L205.278 9.30811H207.234L203.593 18.7398H201.257L197.598 9.30811Z" fill="#7B93FF"/>
</g>
<defs>
<clipPath id="clip0_801_3509">
<rect width="207.238" height="34" fill="white"/>
</clipPath>
</defs>
</svg>
