<svg width="18" height="18" viewBox="0 0 18 18" fill="none" xmlns="http://www.w3.org/2000/svg">
<path d="M6.75 5.625H14.25" stroke="white" stroke-width="1.5" stroke-linecap="round" stroke-linejoin="round"/>
<path d="M10.5 12.1443L3 12.1443" stroke="white" stroke-width="1.5" stroke-linecap="round" stroke-linejoin="round"/>
<path fill-rule="evenodd" clip-rule="evenodd" d="M6.54472 5.50969C6.54472 4.53795 5.7511 3.75 4.77236 3.75C3.79362 3.75 3 4.53795 3 5.50969C3 6.48143 3.79362 7.26938 4.77236 7.26938C5.7511 7.26938 6.54472 6.48143 6.54472 5.50969Z" stroke="white" stroke-width="1.5" stroke-linecap="round" stroke-linejoin="round"/>
<path fill-rule="evenodd" clip-rule="evenodd" d="M10.7053 12.2596C10.7053 13.2313 11.4989 14.0193 12.4776 14.0193C13.4564 14.0193 14.25 13.2313 14.25 12.2596C14.25 11.2879 13.4564 10.4999 12.4776 10.4999C11.4989 10.4999 10.7053 11.2879 10.7053 12.2596Z" stroke="white" stroke-width="1.5" stroke-linecap="round" stroke-linejoin="round"/>
</svg>
