<svg width="13" height="10" viewBox="0 0 13 10" fill="none" xmlns="http://www.w3.org/2000/svg">
<path d="M6.58602 0.0062076C8.23188 0.0062076 9.87774 0.00930203 11.5265 0.00311317C11.8396 1.87421e-05 12.0694 0.129985 12.213 0.411578C12.2733 0.529166 12.2877 0.686982 12.2877 0.829326C12.2934 1.79788 12.2963 2.76953 12.2877 3.73809C12.2848 3.92375 12.3595 4.01659 12.5002 4.06919C12.8995 4.21463 13.0086 4.44362 12.9971 4.84899C12.9741 5.69996 12.9943 6.55093 13 7.40189C13 7.58756 12.9885 7.77632 12.8334 7.88462C12.7214 7.96199 12.5921 8.02697 12.4629 8.05172C12.3307 8.07957 12.1871 8.05791 12.0464 8.05791C11.8424 8.05791 11.8338 8.0672 11.8338 8.28071C11.8338 8.73559 11.8338 9.18738 11.8309 9.64226C11.8309 9.75366 11.8281 9.86196 11.7132 9.93314C11.4949 10.0693 11.2593 9.9517 11.2536 9.68249C11.2479 9.22451 11.2507 8.76344 11.2507 8.30547C11.2507 8.05791 11.2507 8.05791 11.0209 8.05791C8.36114 8.05791 5.69846 8.05791 3.03865 8.05791C2.68535 8.05791 2.32918 8.05791 1.97588 8.05791C1.74896 8.05791 1.74896 8.06101 1.74896 8.29618C1.74896 8.75106 1.74609 9.20285 1.74896 9.65773C1.74896 9.80317 1.70588 9.90838 1.58236 9.96718C1.4646 10.0229 1.34396 10.0105 1.2664 9.90838C1.21183 9.8403 1.17449 9.732 1.17162 9.63917C1.163 9.19666 1.16587 8.75106 1.16587 8.30856C1.16587 8.06101 1.163 8.05791 0.933211 8.05791C0.795338 8.05791 0.654592 8.06101 0.516719 8.05482C0.240972 8.04244 0.00831086 7.81036 0.0054385 7.51639C-0.00317858 6.55711 -0.00030622 5.59784 0.0054385 4.63857C0.00831086 4.32603 0.212249 4.18678 0.447782 4.08157C0.556932 4.03206 0.666082 3.97945 0.775231 3.92994C0.878636 3.88662 0.910232 3.80926 0.910232 3.68858C0.904487 2.92425 0.90736 2.16302 0.90736 1.3987C0.90736 1.18209 0.921722 0.965481 0.904488 0.748871C0.872892 0.377539 1.24917 -0.00307569 1.60534 1.87421e-05C3.26557 0.0123965 4.92579 0.0062076 6.58602 0.0062076ZM6.48549 7.38333C7.8556 7.38642 9.22285 7.38642 10.593 7.38333C11.1387 7.38333 11.6845 7.38333 12.2302 7.38023C12.3279 7.38023 12.4112 7.37404 12.4112 7.22861C12.4083 6.44571 12.4112 5.66282 12.4083 4.87684C12.4083 4.76853 12.3623 4.70046 12.2589 4.66023C12.0722 4.58596 11.8913 4.49313 11.7046 4.41886C11.4001 4.30128 11.0928 4.18678 10.7854 4.08776C10.5212 4.00421 10.2512 3.93613 9.98402 3.87115C9.60774 3.78141 9.23146 3.68239 8.84944 3.6205C8.47316 3.55861 8.08826 3.54005 7.70911 3.49363C6.97379 3.40389 6.23846 3.3977 5.50314 3.46887C5.03782 3.51529 4.56962 3.56171 4.1043 3.6205C3.87738 3.65145 3.65334 3.71024 3.42929 3.76284C3.14206 3.83092 2.85482 3.90828 2.56758 3.98564C2.31482 4.05682 2.05918 4.1218 1.81215 4.21154C1.49619 4.32603 1.18885 4.45909 0.878636 4.58596C0.5914 4.70046 0.582783 4.71283 0.582783 5.04084C0.582783 5.43384 0.582783 5.82373 0.582783 6.21673C0.582783 6.54783 0.585655 6.87584 0.579911 7.20694C0.577038 7.33691 0.628741 7.38642 0.740763 7.38333C0.789593 7.38023 0.835551 7.38333 0.884381 7.38333C2.75429 7.38333 4.62132 7.38333 6.48549 7.38333ZM3.51546 0.646754C2.91801 0.646754 2.31769 0.646754 1.72024 0.646754C1.53928 0.646754 1.49045 0.69936 1.49045 0.894309C1.48758 1.179 1.48758 1.46059 1.48758 1.74528C1.48758 2.30846 1.48758 2.86855 1.48758 3.43174C1.48758 3.58027 1.53353 3.6205 1.66279 3.58337C1.72311 3.5679 1.77769 3.51838 1.83513 3.5122C1.99886 3.49982 2.02184 3.39151 2.02184 3.24607C2.01896 2.79119 2.01035 2.33941 2.02471 1.88453C2.0362 1.43583 2.26024 1.19137 2.62503 1.18209C3.64759 1.15734 4.67303 1.16971 5.69846 1.1759C6.04314 1.179 6.31602 1.49463 6.31889 1.86905C6.32176 2.03925 6.31889 2.20944 6.31889 2.37963C6.31889 2.84999 6.28729 2.76953 6.69517 2.785C6.83879 2.79119 6.879 2.72312 6.879 2.58387C6.87613 2.3456 6.87325 2.11042 6.879 1.87215C6.89049 1.46059 7.15762 1.1759 7.53677 1.1759C8.52773 1.1759 9.5187 1.17281 10.5097 1.1759C10.9003 1.1759 11.1761 1.47916 11.1789 1.8969C11.1818 2.33941 11.1789 2.78501 11.1789 3.22751C11.1789 3.51838 11.1789 3.51838 11.4288 3.60812C11.4518 3.61741 11.4719 3.62978 11.4949 3.64216C11.6644 3.72571 11.7074 3.69477 11.7074 3.49672C11.7074 2.64576 11.7074 1.79479 11.7074 0.94382C11.7074 0.683888 11.673 0.646754 11.4346 0.646754C10.6303 0.646754 9.82604 0.649849 9.02178 0.646754C8.09975 0.64366 7.17485 0.628188 6.25282 0.625093C5.90527 0.625093 5.56059 0.64366 5.21303 0.646754C4.64717 0.649849 4.08132 0.646754 3.51546 0.646754ZM9.01891 1.85668C8.55933 1.85668 8.10262 1.85668 7.64305 1.85668C7.56262 1.85668 7.48794 1.85358 7.49081 1.98045C7.49368 2.21872 7.49368 2.4539 7.49081 2.69217C7.49081 2.78191 7.52815 2.82214 7.61145 2.82523C7.71773 2.82833 7.82113 2.83142 7.92741 2.8438C8.60816 2.93354 9.29178 3.0109 9.95817 3.19656C10.1047 3.23679 10.254 3.27083 10.4034 3.30487C10.5068 3.32962 10.5527 3.29868 10.5499 3.1749C10.5441 2.79429 10.5441 2.41367 10.5499 2.03306C10.5527 1.89381 10.5039 1.85668 10.3833 1.85977C9.92657 1.86287 9.47274 1.85668 9.01891 1.85668ZM4.16749 1.85668C3.70791 1.85668 3.24833 1.85668 2.78876 1.85668C2.7112 1.85668 2.63078 1.84739 2.63078 1.97736C2.63365 2.36416 2.63078 2.75097 2.63078 3.13777C2.63078 3.23989 2.67099 3.26774 2.76865 3.24298C3.07886 3.16562 3.38908 3.07588 3.70504 3.03256C4.31685 2.94592 4.92867 2.88403 5.54335 2.82214C5.64963 2.80976 5.68697 2.76953 5.6841 2.66123C5.68122 2.4539 5.67835 2.24967 5.68697 2.04234C5.69271 1.9 5.64963 1.85358 5.51463 1.85668C5.06654 1.86287 4.61845 1.85668 4.16749 1.85668Z" fill="#7B93FF"/>
</svg>
