<svg width="17" height="18" viewBox="0 0 17 18" fill="none" xmlns="http://www.w3.org/2000/svg">
<g clip-path="url(#clip0_1_1668)">
<path d="M9.71243 2.12427H4.27452C3.91396 2.12427 3.56817 2.27575 3.31322 2.54539C3.05827 2.81503 2.91504 3.18075 2.91504 3.56208V15.0646C2.91504 15.4459 3.05827 15.8116 3.31322 16.0813C3.56817 16.3509 3.91396 16.5024 4.27452 16.5024H12.4314C12.7919 16.5024 13.1377 16.3509 13.3927 16.0813C13.6476 15.8116 13.7909 15.4459 13.7909 15.0646V6.4377L9.71243 2.12427Z" stroke="white" stroke-linecap="round" stroke-linejoin="round"/>
<path d="M11.0722 12.908H5.63428" stroke="white" stroke-linecap="round" stroke-linejoin="round"/>
<path d="M11.0722 10.0322H5.63428" stroke="white" stroke-linecap="round" stroke-linejoin="round"/>
<path d="M6.99375 7.15674H6.31402H5.63428" stroke="white" stroke-linecap="round" stroke-linejoin="round"/>
<path d="M9.7124 2.12427V6.4377H13.7908" stroke="white" stroke-linecap="round" stroke-linejoin="round"/>
</g>
<defs>
<clipPath id="clip0_1_1668">
<rect width="16.3137" height="17.2537" fill="white" transform="translate(0.196289 0.686523)"/>
</clipPath>
</defs>
</svg>
