<svg width="70" height="63" viewBox="0 0 70 63" fill="none" xmlns="http://www.w3.org/2000/svg">
<path d="M34.9562 50.225C39.1854 50.225 42.7292 48.7958 45.5875 45.9375C48.4458 43.0792 49.875 39.5354 49.875 35.3063C49.875 31.0771 48.4458 27.5479 45.5875 24.7188C42.7292 21.8896 39.1854 20.475 34.9562 20.475C30.7271 20.475 27.1979 21.8896 24.3687 24.7188C21.5396 27.5479 20.125 31.0771 20.125 35.3063C20.125 39.5354 21.5396 43.0792 24.3687 45.9375C27.1979 48.7958 30.7271 50.225 34.9562 50.225ZM34.9562 44.975C32.1854 44.975 29.8958 44.0563 28.0875 42.2188C26.2792 40.3812 25.375 38.0771 25.375 35.3063C25.375 32.5354 26.2792 30.2458 28.0875 28.4375C29.8958 26.6292 32.1854 25.725 34.9562 25.725C37.7271 25.725 40.0312 26.6292 41.8688 28.4375C43.7063 30.2458 44.625 32.5354 44.625 35.3063C44.625 38.0771 43.7063 40.3812 41.8688 42.2188C40.0312 44.0563 37.7271 44.975 34.9562 44.975ZM5.25 63C3.85 63 2.625 62.475 1.575 61.425C0.525 60.375 0 59.15 0 57.75V12.8625C0 11.5208 0.525 10.3104 1.575 9.23125C2.625 8.15208 3.85 7.6125 5.25 7.6125H18.1125L24.5 0H45.5L51.8875 7.6125H64.75C66.0917 7.6125 67.3021 8.15208 68.3812 9.23125C69.4604 10.3104 70 11.5208 70 12.8625V57.75C70 59.15 69.4604 60.375 68.3812 61.425C67.3021 62.475 66.0917 63 64.75 63H5.25ZM64.75 57.75V12.8625H49.4375L43.05 5.25H26.95L20.5625 12.8625H5.25V57.75H64.75Z" fill="#E1E1E1"/>
</svg>
