<svg width="17" height="17" viewBox="0 0 17 17" fill="none" xmlns="http://www.w3.org/2000/svg">
<g clip-path="url(#clip0_1_2391)">
<path d="M7.01266 3.00327C7.50023 2.88914 7.99942 2.83209 8.50016 2.83327C13.4585 2.83327 16.2918 8.49994 16.2918 8.49994C15.8619 9.30433 15.3491 10.0616 14.7618 10.7595M10.0018 10.0016C9.80729 10.2104 9.57269 10.3778 9.31202 10.494C9.05136 10.6101 8.76997 10.6726 8.48464 10.6776C8.19932 10.6826 7.9159 10.6302 7.6513 10.5233C7.3867 10.4164 7.14634 10.2573 6.94455 10.0555C6.74277 9.85376 6.58369 9.6134 6.47681 9.3488C6.36994 9.0842 6.31745 8.80078 6.32249 8.51546C6.32752 8.23013 6.38997 7.94874 6.50612 7.68808C6.62226 7.42741 6.78972 7.19281 6.9985 6.99827M12.7077 12.7074C11.4968 13.6304 10.0224 14.1417 8.50016 14.1666C3.54183 14.1666 0.708496 8.49994 0.708496 8.49994C1.58958 6.85795 2.81163 5.42337 4.29266 4.29244L12.7077 12.7074Z" stroke="white" stroke-linecap="round" stroke-linejoin="round"/>
<path d="M0.708496 0.708252L16.2918 16.2916" stroke="white" stroke-linecap="round" stroke-linejoin="round"/>
</g>
<defs>
<clipPath id="clip0_1_2391">
<rect width="17" height="17" fill="white"/>
</clipPath>
</defs>
</svg>
