<svg width="20" height="18" viewBox="0 0 20 18" fill="none" xmlns="http://www.w3.org/2000/svg">
<path d="M18.9576 8.025V16.5C18.9576 16.9 18.8083 17.25 18.5098 17.55C18.2113 17.85 17.863 18 17.465 18H2.51383C2.1158 18 1.76752 17.85 1.46899 17.55C1.17047 17.25 1.0212 16.9 1.0212 16.5V8.025C0.556832 7.625 0.250015 7.13333 0.100752 6.55C-0.0485103 5.96667 -0.0319256 5.38333 0.150506 4.8L1.22022 1.425C1.3529 0.975 1.58509 0.625 1.91678 0.375C2.24847 0.125 2.62992 0 3.06113 0H16.8182C17.2825 0 17.6889 0.129167 18.0371 0.3875C18.3854 0.645833 18.6259 0.991667 18.7586 1.425L19.8532 4.8C20.0356 5.38333 20.048 5.96667 19.8905 6.55C19.7329 7.13333 19.422 7.625 18.9576 8.025ZM12.2408 7.25C12.7217 7.25 13.1281 7.09167 13.4598 6.775C13.7914 6.45833 13.9241 6.075 13.8578 5.625L13.2359 1.5H10.7481V5.625C10.7481 6.05833 10.8891 6.4375 11.1711 6.7625C11.453 7.0875 11.8096 7.25 12.2408 7.25ZM7.58876 7.25C8.05313 7.25 8.44702 7.09167 8.77042 6.775C9.09382 6.45833 9.25552 6.075 9.25552 5.625V1.5H6.76781L6.14589 5.625C6.07955 6.05833 6.19564 6.4375 6.49416 6.7625C6.79269 7.0875 7.15755 7.25 7.58876 7.25ZM3.06113 7.25C3.45916 7.25 3.80329 7.1125 4.09353 6.8375C4.38376 6.5625 4.55375 6.225 4.60351 5.825L5.25031 1.5H2.7626L1.61826 5.15C1.45241 5.66667 1.51875 6.14583 1.81727 6.5875C2.1158 7.02917 2.53042 7.25 3.06113 7.25ZM16.9177 7.25C17.4484 7.25 17.8671 7.03333 18.174 6.6C18.4808 6.16667 18.5513 5.68333 18.3854 5.15L17.2411 1.5H14.7534L15.4002 5.825C15.4499 6.225 15.6199 6.5625 15.9101 6.8375C16.2004 7.1125 16.5362 7.25 16.9177 7.25ZM2.51383 16.5H17.465V8.725C17.4815 8.74167 17.4276 8.75 17.3033 8.75H16.9177C16.503 8.75 16.1092 8.6625 15.736 8.4875C15.3628 8.3125 14.9938 8.04167 14.629 7.675C14.3636 8.00833 14.0319 8.27083 13.6339 8.4625C13.2359 8.65417 12.7964 8.75 12.3154 8.75C11.8179 8.75 11.3908 8.67917 11.0342 8.5375C10.6777 8.39583 10.3335 8.15833 10.0018 7.825C9.75306 8.125 9.43795 8.35417 9.05651 8.5125C8.67506 8.67083 8.24385 8.75 7.7629 8.75C7.24877 8.75 6.79269 8.65833 6.39466 8.475C5.99662 8.29167 5.65664 8.025 5.3747 7.675C4.97666 8.025 4.58692 8.29167 4.20547 8.475C3.82402 8.65833 3.44258 8.75 3.06113 8.75H2.72529C2.61749 8.75 2.547 8.74167 2.51383 8.725V16.5Z" fill="black"/>
</svg>
