<svg width="19" height="19" viewBox="0 0 19 19" fill="none" xmlns="http://www.w3.org/2000/svg">
<path d="M2.88232 5.08838H4.35291H16.1176" stroke="white" stroke-linecap="round" stroke-linejoin="round"/>
<path d="M6.55891 5.08839V3.6178C6.55891 3.22778 6.71385 2.85373 6.98964 2.57794C7.26542 2.30215 7.63947 2.14722 8.0295 2.14722H10.9707C11.3607 2.14722 11.7347 2.30215 12.0105 2.57794C12.2863 2.85373 12.4413 3.22778 12.4413 3.6178V5.08839M14.6471 5.08839V15.3825C14.6471 15.7725 14.4922 16.1466 14.2164 16.4224C13.9406 16.6982 13.5666 16.8531 13.1766 16.8531H5.82362C5.43359 16.8531 5.05954 16.6982 4.78375 16.4224C4.50796 16.1466 4.35303 15.7725 4.35303 15.3825V5.08839H14.6471Z" stroke="white" stroke-linecap="round" stroke-linejoin="round"/>
<path d="M10.9707 8.76465V13.1764" stroke="white" stroke-linecap="round" stroke-linejoin="round"/>
<path d="M8.02954 8.76465V13.1764" stroke="white" stroke-linecap="round" stroke-linejoin="round"/>
</svg>
