<svg width="17" height="17" viewBox="0 0 17 17" fill="none" xmlns="http://www.w3.org/2000/svg">
<path d="M0 17V3.89583H3.89583V0H13.1042V7.79167H17V17H9.75139V13.1042H7.24861V17H0ZM1.41667 15.5833H3.89583V13.1042H1.41667V15.5833ZM1.41667 11.6875H3.89583V9.20833H1.41667V11.6875ZM1.41667 7.79167H3.89583V5.3125H1.41667V7.79167ZM5.3125 11.6875H7.79167V9.20833H5.3125V11.6875ZM5.3125 7.79167H7.79167V5.3125H5.3125V7.79167ZM5.3125 3.89583H7.79167V1.41667H5.3125V3.89583ZM9.20833 11.6875H11.6875V9.20833H9.20833V11.6875ZM9.20833 7.79167H11.6875V5.3125H9.20833V7.79167ZM9.20833 3.89583H11.6875V1.41667H9.20833V3.89583ZM13.1042 15.5833H15.5833V13.1042H13.1042V15.5833ZM13.1042 11.6875H15.5833V9.20833H13.1042V11.6875Z" fill="black"/>
</svg>
