<svg width="22" height="22" viewBox="0 0 22 22" fill="none" xmlns="http://www.w3.org/2000/svg">
<path d="M16.124 20.1941C17.5339 20.1941 18.6768 19.0013 18.6768 17.5299C18.6768 16.0585 17.5339 14.8657 16.124 14.8657C14.7142 14.8657 13.5713 16.0585 13.5713 17.5299C13.5713 19.0013 14.7142 20.1941 16.124 20.1941Z" stroke="white" stroke-linecap="round" stroke-linejoin="round"/>
<path d="M5.9131 13.9775C7.32295 13.9775 8.46586 12.7847 8.46586 11.3133C8.46586 9.84196 7.32295 8.64917 5.9131 8.64917C4.50326 8.64917 3.36035 9.84196 3.36035 11.3133C3.36035 12.7847 4.50326 13.9775 5.9131 13.9775Z" stroke="white" stroke-linecap="round" stroke-linejoin="round"/>
<path d="M8.11719 12.6545L13.929 16.189" stroke="white" stroke-linecap="round" stroke-linejoin="round"/>
<path d="M16.124 7.76122C17.5339 7.76122 18.6768 6.56843 18.6768 5.09704C18.6768 3.62565 17.5339 2.43286 16.124 2.43286C14.7142 2.43286 13.5713 3.62565 13.5713 5.09704C13.5713 6.56843 14.7142 7.76122 16.124 7.76122Z" stroke="white" stroke-linecap="round" stroke-linejoin="round"/>
<path d="M13.9204 6.43799L8.11719 9.97247" stroke="white" stroke-linecap="round" stroke-linejoin="round"/>
</svg>
