<svg width="18" height="20" viewBox="0 0 18 20" fill="none" xmlns="http://www.w3.org/2000/svg">
<path d="M3.19663 0.00101316C3.01465 0.0425122 2.82853 0.0723713 2.65068 0.127535C1.20462 0.576939 0.320025 1.52079 0.0506664 2.99198C0.0108571 3.2091 0.00206801 3.4343 0.00155101 3.65597C0 7.55132 0.00103401 11.4472 0 15.3425C0 16.7363 0.594037 17.8072 1.81417 18.5304C2.32445 18.8335 2.8885 18.9939 3.48667 18.9965C5.23621 19.0035 6.98627 19.001 8.73581 18.9995C9.05428 18.9995 9.28849 18.7849 9.30141 18.4944C9.31589 18.1766 9.11839 17.9509 8.79268 17.917C8.71151 17.9084 8.62879 17.9084 8.54659 17.9084C6.94181 17.9084 5.33755 17.9038 3.73277 17.9099C2.93761 17.9129 2.26189 17.6584 1.73145 17.0688C1.28889 16.5769 1.11104 15.9938 1.11156 15.3456C1.11363 11.4745 1.11207 7.60344 1.11414 3.73239C1.11414 3.55374 1.12603 3.37408 1.1462 3.19644C1.27131 2.09368 2.27999 1.13515 3.40912 1.1139C5.08266 1.08252 6.75672 1.0977 8.43078 1.09264C8.51298 1.09264 8.59519 1.09466 8.67687 1.08809C8.96174 1.06582 9.16751 0.896785 9.21662 0.650321C9.26781 0.394242 9.13649 0.161442 8.87127 0.0369449C8.84903 0.026317 8.82835 0.0126522 8.80664 0H3.19663V0.00101316Z" fill="#7B93FF"/>
<path d="M16.073 10.0492C15.9913 10.1327 15.9453 10.1818 15.8978 10.2288C15.1248 10.9854 14.3498 11.74 13.5821 12.5017C13.4885 12.5948 13.4022 12.7157 13.365 12.8387C13.2941 13.0725 13.4115 13.3089 13.6162 13.4278C13.8272 13.5503 14.0712 13.529 14.2676 13.3696C14.3111 13.3342 14.3509 13.2937 14.3907 13.2542C15.5079 12.1611 16.6247 11.0679 17.7414 9.97428C18.0831 9.63975 18.0857 9.36191 17.7491 9.03194C16.6148 7.92058 15.479 6.81073 14.3467 5.69785C14.1715 5.52578 13.975 5.44025 13.7325 5.51616C13.365 5.63104 13.2279 6.05565 13.4575 6.35981C13.5061 6.42408 13.565 6.48127 13.6229 6.53795C14.3819 7.2819 15.1419 8.02483 15.9014 8.76827C15.9495 8.81534 15.9955 8.86443 16.0761 8.94692H15.8207C12.2001 8.94692 8.58008 8.94692 4.95951 8.94844C4.85352 8.94844 4.7434 8.95401 4.64258 8.98285C4.38874 9.05472 4.24759 9.26727 4.25948 9.53297C4.27034 9.76931 4.43268 9.9677 4.67619 10.0208C4.77959 10.0436 4.88868 10.0487 4.99518 10.0487C8.59663 10.0502 12.1981 10.0497 15.7995 10.0497C15.8745 10.0497 15.9495 10.0492 16.073 10.0492Z" fill="#7B93FF"/>
</svg>
