<svg width="26" height="26" viewBox="0 0 26 26" fill="none" xmlns="http://www.w3.org/2000/svg">
<path d="M19.5 23.8333C21.2949 23.8333 22.75 22.3782 22.75 20.5833C22.75 18.7883 21.2949 17.3333 19.5 17.3333C17.7051 17.3333 16.25 18.7883 16.25 20.5833C16.25 22.3782 17.7051 23.8333 19.5 23.8333Z" stroke="black" stroke-width="2" stroke-linecap="round" stroke-linejoin="round"/>
<path d="M6.5 16.25C8.29493 16.25 9.75 14.7949 9.75 13C9.75 11.2051 8.29493 9.75 6.5 9.75C4.70507 9.75 3.25 11.2051 3.25 13C3.25 14.7949 4.70507 16.25 6.5 16.25Z" stroke="black" stroke-width="2" stroke-linecap="round" stroke-linejoin="round"/>
<path d="M9.30591 14.6357L16.7051 18.9474" stroke="black" stroke-width="2" stroke-linecap="round" stroke-linejoin="round"/>
<path d="M19.5 8.66675C21.2949 8.66675 22.75 7.21167 22.75 5.41675C22.75 3.62182 21.2949 2.16675 19.5 2.16675C17.7051 2.16675 16.25 3.62182 16.25 5.41675C16.25 7.21167 17.7051 8.66675 19.5 8.66675Z" stroke="black" stroke-width="2" stroke-linecap="round" stroke-linejoin="round"/>
<path d="M16.6942 7.05249L9.30591 11.3642" stroke="black" stroke-width="2" stroke-linecap="round" stroke-linejoin="round"/>
</svg>
