<svg width="22" height="20" viewBox="0 0 22 20" fill="none" xmlns="http://www.w3.org/2000/svg">
<path d="M2.875 19.1667V9.55937L0.8625 11.0927L0 9.94271L2.875 7.7625V5.03125H4.3125V6.66042L10.5417 1.91667L21.0833 9.96667L20.2208 11.0927L18.2083 9.55937V19.1667H2.875ZM4.3125 17.7292H9.82292V13.8958H11.2604V17.7292H16.7708V8.45729L10.5417 3.71354L4.3125 8.45729V17.7292ZM2.875 3.83333C2.875 3.09861 3.13455 2.47569 3.65365 1.96458C4.17274 1.45347 4.79167 1.19792 5.51042 1.19792C5.84983 1.19792 6.13433 1.07812 6.36393 0.838542C6.59353 0.598958 6.70833 0.319444 6.70833 0H8.14583C8.14583 0.71875 7.88962 1.33767 7.37718 1.85677C6.86473 2.37587 6.24247 2.63542 5.51042 2.63542C5.19097 2.63542 4.91146 2.75022 4.67188 2.97982C4.43229 3.20942 4.3125 3.49392 4.3125 3.83333H2.875Z" fill="black"/>
</svg>
