<svg width="19" height="21" viewBox="0 0 19 21" fill="none" xmlns="http://www.w3.org/2000/svg">
<path d="M11.0833 1.75H4.74996C4.33003 1.75 3.92731 1.93437 3.63037 2.26256C3.33344 2.59075 3.16663 3.03587 3.16663 3.5V17.5C3.16663 17.9641 3.33344 18.4092 3.63037 18.7374C3.92731 19.0656 4.33003 19.25 4.74996 19.25H14.25C14.6699 19.25 15.0726 19.0656 15.3695 18.7374C15.6665 18.4092 15.8333 17.9641 15.8333 17.5V7L11.0833 1.75Z" stroke="#5E6366" stroke-linecap="round" stroke-linejoin="round"/>
<path d="M12.6667 14.875H6.33337" stroke="#5E6366" stroke-linecap="round" stroke-linejoin="round"/>
<path d="M12.6667 11.375H6.33337" stroke="#5E6366" stroke-linecap="round" stroke-linejoin="round"/>
<path d="M7.91671 7.875H7.12504H6.33337" stroke="#5E6366" stroke-linecap="round" stroke-linejoin="round"/>
<path d="M11.0834 1.75V7H15.8334" stroke="#5E6366" stroke-linecap="round" stroke-linejoin="round"/>
</svg>
