<svg width="18" height="19" viewBox="0 0 18 19" fill="none" xmlns="http://www.w3.org/2000/svg">
<path d="M2.25 5.23877H3.75H15.75" stroke="white" stroke-linecap="round" stroke-linejoin="round"/>
<path d="M6 5.23887V3.71648C6 3.31272 6.15804 2.92549 6.43934 2.63999C6.72064 2.35449 7.10218 2.19409 7.5 2.19409H10.5C10.8978 2.19409 11.2794 2.35449 11.5607 2.63999C11.842 2.92549 12 3.31272 12 3.71648V5.23887M14.25 5.23887V15.8956C14.25 16.2993 14.092 16.6866 13.8107 16.9721C13.5294 17.2576 13.1478 17.418 12.75 17.418H5.25C4.85218 17.418 4.47064 17.2576 4.18934 16.9721C3.90804 16.6866 3.75 16.2993 3.75 15.8956V5.23887H14.25Z" stroke="white" stroke-linecap="round" stroke-linejoin="round"/>
<path d="M10.5 9.04468V13.6118" stroke="white" stroke-linecap="round" stroke-linejoin="round"/>
<path d="M7.5 9.04468V13.6118" stroke="white" stroke-linecap="round" stroke-linejoin="round"/>
</svg>
