<svg width="251" height="41" viewBox="0 0 251 41" fill="none" xmlns="http://www.w3.org/2000/svg">
<g clip-path="url(#clip0_1_4683)">
<path d="M75.2622 40.9999C57.4166 40.9999 56.8486 29.03 56.8486 25.6435C56.8486 22.2358 57.2418 10.3511 75.2622 10.3511C93.2171 10.3511 93.6758 22.2358 93.6758 25.6435C93.6758 29.03 93.1516 40.9999 75.2622 40.9999ZM75.2622 35.0363C86.9482 35.0363 85.5284 25.0898 85.5284 25.0898C85.5284 23.0877 85.1789 16.3147 75.2622 16.3147C65.3237 16.3147 64.996 23.1729 64.996 25.0898C64.996 25.0898 63.5326 35.0363 75.2622 35.0363Z" fill="#7B93FF"/>
<path d="M100.577 40.3183V11.0326H106.912L107.48 16.0378H108.004C109.074 14.5895 112.46 10.3723 120.498 10.3723C128.733 10.3723 130.655 14.1209 131.55 16.0378H132.053C133.189 14.483 136.836 10.3723 144.722 10.3723C156.866 10.3723 156.866 19.5095 156.866 22.2144V40.3396H149.003V23.5562C148.806 22.3422 149.374 16.5063 141.336 16.8258C138.802 16.9323 132.643 18.8705 132.643 24.7702V40.3396H124.801V23.5562C124.91 16.4637 118.707 16.8258 117.615 16.8258C111.346 16.8897 108.222 21.5328 108.441 24.7702V40.3396H100.577V40.3183Z" fill="#7B93FF"/>
<path d="M182.291 40.9999C164.074 41.149 163.528 29.2004 163.528 25.7074C163.528 22.4913 163.79 10.3724 182.007 10.3511C203.042 10.3511 200.028 25.8139 200.246 27.5817H171.785C171.894 29.3921 172.265 35.015 182.51 35.0363C186.857 35.0576 191.771 33.2259 192.033 30.2015H200.006C200.246 33.2685 197.429 40.8721 182.291 40.9999ZM171.785 22.47H191.924C191.924 21.2347 191.487 16.2934 182.117 16.2934C173.074 16.3147 171.982 21.1495 171.785 22.47Z" fill="#7B93FF"/>
<path d="M11.2838 40.3184L28.4087 18.0613C28.7363 17.6353 29.0203 17.5288 29.1077 17.5288C29.2169 17.5288 29.479 17.6353 29.8066 18.0613L46.9315 40.3184H56.8263L36.1629 13.4395C34.3936 11.1392 31.8162 9.8187 29.1295 9.8187C26.4428 9.8187 23.8654 11.1392 22.0961 13.4395L12.3105 26.1548L18.2736 0H10.148L0.952148 40.3184H11.2838Z" fill="#7B93FF"/>
<path d="M214.859 22.3636C214.182 22.0867 213.592 21.7033 213.09 21.1922C212.587 20.681 212.216 20.0846 211.932 19.3605C211.648 18.6576 211.495 17.8696 211.495 17.0389V16.8259C211.495 15.974 211.648 15.1859 211.932 14.4831C212.216 13.7802 212.609 13.1839 213.09 12.6727C213.592 12.1615 214.182 11.7782 214.859 11.5013C215.536 11.2244 216.301 11.0966 217.131 11.0966H217.196C218.026 11.0966 218.791 11.2457 219.49 11.5439C220.189 11.8421 220.778 12.2467 221.303 12.7579V6.85815H223.509V22.5979H221.783C221.696 22.4062 221.608 22.1506 221.565 21.8524C221.499 21.533 221.455 21.2561 221.434 21.0431V21.0005C220.909 21.5756 220.298 22.0015 219.577 22.321C218.856 22.6405 218.07 22.7896 217.218 22.7896H217.152C216.301 22.7683 215.536 22.6405 214.859 22.3636ZM217.589 20.8727C218.135 20.8727 218.638 20.7875 219.096 20.5958C219.555 20.4041 219.926 20.1485 220.254 19.8078C220.582 19.467 220.844 19.0623 221.019 18.5937C221.193 18.1252 221.281 17.5927 221.281 17.0176V16.8259C221.281 16.2296 221.193 15.6971 221.019 15.2285C220.844 14.76 220.582 14.3553 220.254 14.0145C219.926 13.6737 219.533 13.4182 219.075 13.2265C218.616 13.0348 218.114 12.9496 217.589 12.9496H217.458C216.912 12.9496 216.432 13.0348 215.973 13.2265C215.514 13.4182 215.143 13.6737 214.815 14.0145C214.509 14.3553 214.269 14.76 214.094 15.2285C213.92 15.6971 213.832 16.2296 213.832 16.8259V16.9963C213.832 17.5714 213.92 18.1039 214.094 18.5724C214.269 19.041 214.509 19.4457 214.815 19.7865C215.121 20.1272 215.514 20.3828 215.973 20.5745C216.432 20.7662 216.934 20.8514 217.458 20.8514H217.589V20.8727Z" fill="#7B93FF"/>
<path d="M230.062 22.3637C229.319 22.0868 228.708 21.7034 228.205 21.2136C227.703 20.7237 227.31 20.1273 227.026 19.4458C226.742 18.7642 226.589 18.0188 226.589 17.1881V16.9112C226.589 16.0593 226.742 15.2925 227.026 14.5897C227.31 13.8868 227.725 13.2691 228.249 12.758C228.773 12.2468 229.385 11.8421 230.106 11.544C230.826 11.2458 231.591 11.0967 232.443 11.0967H232.486C233.295 11.0967 234.037 11.2245 234.714 11.4801C235.392 11.7356 235.959 12.0977 236.44 12.5663C236.921 13.0349 237.292 13.6099 237.554 14.2489C237.816 14.8878 237.947 15.612 237.947 16.3788V17.7419H228.817C228.882 18.1891 229.013 18.6151 229.21 18.9985C229.407 19.3819 229.669 19.7227 229.996 19.9995C230.324 20.2764 230.695 20.4894 231.132 20.6385C231.569 20.7876 232.028 20.8728 232.552 20.8728H232.618C233.404 20.8728 234.103 20.7237 234.714 20.4042C235.326 20.106 235.807 19.7227 236.134 19.2754L237.576 20.532C237.314 20.8728 236.986 21.1923 236.615 21.4904C236.243 21.7886 235.828 22.0229 235.392 22.2146C234.933 22.4063 234.474 22.5554 233.994 22.6619C233.513 22.7684 233.033 22.8323 232.53 22.8323H232.421C231.569 22.7684 230.783 22.6406 230.062 22.3637ZM235.807 16.0167C235.785 15.5481 235.676 15.1221 235.501 14.7601C235.326 14.398 235.086 14.0785 234.78 13.8016C234.474 13.5247 234.125 13.3117 233.71 13.1627C233.295 13.0136 232.858 12.9284 232.399 12.9284H232.377C231.919 12.9284 231.504 12.9923 231.11 13.1414C230.717 13.2904 230.346 13.5034 230.062 13.7803C229.756 14.0572 229.516 14.3767 229.319 14.7601C229.123 15.1221 228.97 15.5481 228.882 16.0167H235.807Z" fill="#7B93FF"/>
<path d="M239.237 11.2244H241.596L244.938 20.4254H245.156L248.498 11.2244H250.857L246.467 22.5979H243.649L239.237 11.2244Z" fill="#7B93FF"/>
</g>
<defs>
<clipPath id="clip0_1_4683">
<rect width="249.905" height="41" fill="white" transform="translate(0.952148)"/>
</clipPath>
</defs>
</svg>
