<svg width="150" height="25" viewBox="0 0 150 25" fill="none" xmlns="http://www.w3.org/2000/svg">
<g clip-path="url(#clip0_41_2112)">
<path d="M44.6028 24.8046C33.8913 24.8046 33.5504 17.62 33.5504 15.5873C33.5504 13.5418 33.7864 6.40833 44.6028 6.40833C55.3798 6.40833 55.6551 13.5418 55.6551 15.5873C55.6551 17.62 55.3405 24.8046 44.6028 24.8046ZM44.6028 21.2251C51.617 21.2251 50.7648 15.2549 50.7648 15.2549C50.7648 14.0532 50.5551 9.98787 44.6028 9.98787C38.6374 9.98787 38.4407 14.1043 38.4407 15.2549C38.4407 15.2549 37.5623 21.2251 44.6028 21.2251Z" fill="#7B93FF"/>
<path d="M59.7981 24.3956V6.81745H63.6002L63.9411 9.82171H64.2557C64.8982 8.95239 66.9303 6.42114 71.7551 6.42114C76.6978 6.42114 77.8516 8.67114 78.3891 9.82171H78.6907C79.3724 8.88847 81.5619 6.42114 86.2949 6.42114C93.5845 6.42114 93.5845 11.9055 93.5845 13.5291V24.4084H88.8646V14.3345C88.7466 13.6058 89.0875 10.103 84.2627 10.2947C82.7419 10.3586 79.0447 11.522 79.0447 15.0632V24.4084H74.3379V14.3345C74.4035 10.0774 70.68 10.2947 70.0245 10.2947C66.2617 10.3331 64.3869 13.12 64.518 15.0632V24.4084H59.7981V24.3956Z" fill="#7B93FF"/>
<path d="M108.845 24.8046C97.911 24.8941 97.5833 17.7222 97.5833 15.6257C97.5833 13.6953 97.7406 6.42111 108.675 6.40833C121.301 6.40833 119.491 15.6896 119.622 16.7507H102.539C102.605 17.8373 102.828 21.2123 108.976 21.2251C111.586 21.2379 114.535 20.1384 114.693 18.3231H119.478C119.622 20.164 117.931 24.7279 108.845 24.8046ZM102.539 13.6825H114.627C114.627 12.941 114.365 9.97509 108.74 9.97509C103.313 9.98787 102.657 12.8899 102.539 13.6825Z" fill="#7B93FF"/>
<path d="M6.20138 24.3956L16.4802 11.0362C16.6769 10.7805 16.8473 10.7166 16.8997 10.7166C16.9653 10.7166 17.1226 10.7805 17.3193 11.0362L27.5981 24.3956H33.5373L21.1345 8.26207C20.0725 6.88139 18.5255 6.08878 16.9129 6.08878C15.3002 6.08878 13.7532 6.88139 12.6912 8.26207L6.81759 15.8942L10.3968 0.195312H5.51962L0 24.3956H6.20138Z" fill="#7B93FF"/>
<path d="M128.394 13.6186C127.987 13.4524 127.633 13.2223 127.332 12.9155C127.03 12.6086 126.807 12.2507 126.637 11.816C126.466 11.3942 126.375 10.9211 126.375 10.4226V10.2947C126.375 9.78336 126.466 9.31035 126.637 8.88847C126.807 8.4666 127.043 8.10864 127.332 7.80182C127.633 7.49501 127.987 7.26489 128.394 7.0987C128.8 6.93251 129.259 6.8558 129.757 6.8558H129.796C130.295 6.8558 130.753 6.94529 131.173 7.12427C131.593 7.30325 131.947 7.54614 132.261 7.85296V4.31177H133.585V13.7592H132.55C132.497 13.6442 132.445 13.4907 132.419 13.3118C132.379 13.12 132.353 12.9538 132.34 12.826V12.8004C132.025 13.1456 131.658 13.4013 131.225 13.593C130.793 13.7848 130.321 13.8743 129.81 13.8743H129.77C129.259 13.8615 128.8 13.7848 128.394 13.6186ZM130.032 12.7237C130.36 12.7237 130.662 12.6726 130.937 12.5575C131.212 12.4425 131.435 12.289 131.632 12.0845C131.829 11.88 131.986 11.6371 132.091 11.3558C132.196 11.0746 132.248 10.755 132.248 10.4098V10.2947C132.248 9.93677 132.196 9.61717 132.091 9.33592C131.986 9.05467 131.829 8.81177 131.632 8.60722C131.435 8.40268 131.199 8.24927 130.924 8.13421C130.649 8.01915 130.347 7.96802 130.032 7.96802H129.954C129.626 7.96802 129.338 8.01915 129.062 8.13421C128.787 8.24927 128.564 8.40268 128.367 8.60722C128.184 8.81177 128.04 9.05467 127.935 9.33592C127.83 9.61717 127.777 9.93677 127.777 10.2947V10.397C127.777 10.7422 127.83 11.0618 127.935 11.343C128.04 11.6243 128.184 11.8672 128.367 12.0717C128.551 12.2763 128.787 12.4297 129.062 12.5447C129.338 12.6598 129.639 12.7109 129.954 12.7109H130.032V12.7237Z" fill="#7B93FF"/>
<path d="M137.519 13.6186C137.073 13.4524 136.706 13.2223 136.404 12.9283C136.103 12.6342 135.867 12.2763 135.696 11.8672C135.526 11.4581 135.434 11.0107 135.434 10.5121V10.3459C135.434 9.83453 135.526 9.3743 135.696 8.95243C135.867 8.53055 136.116 8.15981 136.43 7.85299C136.745 7.54618 137.112 7.30328 137.545 7.1243C137.977 6.94532 138.436 6.85583 138.948 6.85583H138.974C139.459 6.85583 139.905 6.93254 140.311 7.08595C140.718 7.23936 141.058 7.45669 141.347 7.73794C141.635 8.01919 141.858 8.36436 142.016 8.74788C142.173 9.1314 142.252 9.56606 142.252 10.0263V10.8445H136.771C136.811 11.1129 136.889 11.3686 137.007 11.5987C137.125 11.8288 137.283 12.0334 137.479 12.1996C137.676 12.3658 137.899 12.4936 138.161 12.5831C138.423 12.6726 138.699 12.7237 139.013 12.7237H139.053C139.525 12.7237 139.944 12.6342 140.311 12.4425C140.678 12.2635 140.967 12.0334 141.163 11.7649L142.029 12.5192C141.871 12.7237 141.675 12.9155 141.452 13.0945C141.229 13.2734 140.98 13.4141 140.718 13.5291C140.442 13.6442 140.167 13.7337 139.879 13.7976C139.59 13.8615 139.302 13.8999 139 13.8999H138.935C138.423 13.8615 137.951 13.7848 137.519 13.6186ZM140.967 9.80896C140.954 9.52771 140.888 9.27203 140.783 9.0547C140.678 8.83737 140.534 8.64561 140.35 8.47942C140.167 8.31322 139.957 8.18538 139.708 8.09589C139.459 8.0064 139.197 7.95527 138.921 7.95527H138.908C138.633 7.95527 138.384 7.99362 138.148 8.08311C137.912 8.1726 137.689 8.30044 137.519 8.46663C137.335 8.63282 137.191 8.82459 137.073 9.0547C136.955 9.27203 136.863 9.52771 136.811 9.80896H140.967Z" fill="#7B93FF"/>
<path d="M143.025 6.9325H144.441L146.447 12.4552H146.578L148.584 6.9325H150L147.365 13.7592H145.674L143.025 6.9325Z" fill="#7B93FF"/>
</g>
<defs>
<clipPath id="clip0_41_2112">
<rect width="150" height="24.6094" fill="white" transform="translate(0 0.195312)"/>
</clipPath>
</defs>
</svg>
