<svg width="16" height="19" viewBox="0 0 16 19" fill="none" xmlns="http://www.w3.org/2000/svg">
<path d="M15 7.95455C15 13.3636 8 18 8 18C8 18 1 13.3636 1 7.95455C1 6.11009 1.7375 4.34117 3.05025 3.03694C4.36301 1.73271 6.14348 1 8 1C9.85652 1 11.637 1.73271 12.9497 3.03694C14.2625 4.34117 15 6.11009 15 7.95455Z" stroke="#7B93FF" stroke-linecap="round" stroke-linejoin="round"/>
<path d="M8 10.2727C9.28866 10.2727 10.3333 9.23484 10.3333 7.95455C10.3333 6.67425 9.28866 5.63636 8 5.63636C6.71134 5.63636 5.66667 6.67425 5.66667 7.95455C5.66667 9.23484 6.71134 10.2727 8 10.2727Z" stroke="#7B93FF" stroke-linecap="round" stroke-linejoin="round"/>
</svg>
